<svg xmlns="http://www.w3.org/2000/svg" viewBox="0 0 512 512">
  <!-- Dark rounded background -->
  <rect width="512" height="512" rx="110" ry="110" fill="#2A2A2A"/>
  <!-- Flame shape in terracotta #8E7060 -->
  <path
    d="M256 96
       C256 96 320 180 320 270
       C320 284 316 296 310 306
       C330 288 338 264 336 242
       C336 242 370 282 370 318
       C370 374 318 416 256 416
       C194 416 142 374 142 318
       C142 282 176 242 176 242
       C174 264 182 288 202 306
       C196 296 192 284 192 270
       C192 180 256 96 256 96Z"
    fill="#8E7060"
  />
  <!-- Inner teardrop highlight -->
  <path
    d="M256 220
       C256 220 230 262 230 294
       C230 310 240 322 256 326
       C272 322 282 310 282 294
       C282 262 256 220 256 220Z"
    fill="#2A2A2A"
    opacity="0.5"
  />
</svg>