<?xml version="1.0" encoding="utf-8" ?><svg xmlns="http://www.w3.org/2000/svg" xmlns:xlink="http://www.w3.org/1999/xlink" width="1131" height="986" viewBox="0 0 1131 986"><clipPath id="cl_3"><rect x="-0.00036621094" y="1.5258789e-05" width="1130.782" height="985.80988"/></clipPath><g clip-path="url(#cl_3)"><path fill="#755B4D" transform="matrix(0.935304 0 0 0.935304 -740.761 -245.049)" d="M1450.74 310.078C1454.6 309.846 1457.77 309.438 1461.25 311.043C1464.9 315.779 1462.64 344.891 1464.87 354.669C1465.96 362.118 1467.49 370.289 1470.64 377.227C1492.41 425.171 1534.33 457.235 1547.85 510.505C1558.71 553.319 1554.15 594.653 1526.61 630.31C1520.01 638.853 1507.47 652.121 1502.59 660.664L1502.07 661.604C1554.56 728.183 1543.9 844.36 1554.44 923.269C1556.41 937.987 1559.37 952.038 1562.21 966.588C1564.15 976.512 1571.01 994.422 1570.41 1003.36C1563.37 1014.48 1553.98 1005.34 1551.17 995.411C1537.99 948.91 1533.56 901.607 1531 853.557C1529.68 819.704 1527.97 786.198 1521.21 752.925C1514.87 721.705 1504.21 699.6 1488.54 672.243C1485.3 677.429 1479.64 689.091 1472.68 688.358C1470.43 688.116 1468.41 686.881 1467.16 684.991C1462.32 677.551 1473.12 659.648 1475.49 652.119C1483.25 627.713 1484.99 596.145 1474.83 572.271C1465.02 549.217 1445.39 529.602 1431.69 508.754C1427.45 502.31 1428.85 490.038 1424.67 483.781L1423.25 484.347C1403.78 512.826 1414.1 563.457 1425.44 593.741C1429.92 605.71 1448 626.87 1446.34 637.702C1443.52 656.197 1427.94 635.948 1423.51 630.508C1400.6 603.917 1366.44 612.462 1338.47 624.888C1321.58 632.393 1303.06 639.701 1287.33 649.348C1284.92 654.225 1283.25 663.092 1281.8 665.153C1265.1 686.846 1232.87 695.132 1210.5 710.84C1201.55 717.126 1193.05 722.997 1200.84 735.596C1201.53 735.938 1202.22 736.279 1202.91 736.621C1207.79 733.832 1219.08 724.926 1224.37 724.611C1231.67 724.175 1242.56 721.769 1248.45 725.855C1254.29 739.939 1223.93 743.43 1214.53 749.635L1213.39 750.395C1210.27 755.334 1208.96 759.238 1206.86 764.666C1206.44 772.984 1207.24 780.326 1216.58 783.317C1228.62 787.177 1244.84 782.948 1255.25 776.382C1264.36 770.64 1272.4 759.162 1284.11 763.889C1293.1 776.137 1256.35 794.424 1247.81 797.528C1236.44 801.658 1225 801.146 1213.17 800.937C1239.8 826.72 1254.75 803.431 1283.96 804.189C1301.18 804.635 1321.66 812.894 1338.99 816.608C1370.46 823.351 1410.04 821.87 1430.25 792.876C1435.16 785.794 1441.63 764.073 1453.12 772.529C1454.54 775.402 1455.44 779.377 1454.46 782.424C1438.87 830.928 1386.42 843.752 1343.91 836.417C1343.79 848.701 1340.58 865.026 1338.14 877.116C1329.67 919.265 1320.07 960.817 1315.32 1003.64C1315.07 1005.9 1312.3 1007.8 1310.48 1008.87C1302.78 1009.78 1300.13 1005.57 1297.7 999.36C1301.28 982.997 1302.47 964.986 1306.09 948.311C1314.44 909.872 1322.4 870.919 1327.85 831.917C1311.84 829.043 1297.73 823.357 1280.81 823.497C1256.87 823.695 1243.77 839.494 1218.38 826.167C1204.85 819.067 1197.36 810.96 1192.6 796.537C1190.9 795.81 1189.21 795.031 1187.55 794.201C1164.37 782.609 1174.63 758.737 1183.31 741.604C1181.67 734.243 1176.92 722.976 1180.67 715.918C1192.91 692.889 1237.4 679.613 1258.27 663.76C1267.25 656.933 1266.4 650.208 1270.82 643.889C1277.95 633.688 1301.73 622.719 1313.09 617.496C1298.67 605.181 1292.21 595.997 1283.23 578.971C1272.23 558.098 1266.28 487.247 1291.19 477.464C1302.75 477.89 1303.59 498.74 1308.3 507.159C1319.7 527.519 1334.65 549.245 1352.76 564.082C1353.09 562.617 1342.16 530.362 1341.55 523.577C1335.58 457.416 1366.18 396.638 1410.5 349.383C1422.95 336.109 1436.49 321.259 1450.74 310.078ZM1409.9 597.728C1391.05 553.768 1385.6 510.794 1412.55 468.604C1416.25 462.812 1422.17 446.242 1431.53 451.444C1437.48 454.744 1439.79 481.723 1443.63 490.728L1444.12 491.847C1450.79 507.039 1460.7 518.108 1469.98 531.277C1495.47 567.47 1500.12 596.577 1494.45 639.27C1517.86 620.768 1532.15 591.978 1535.95 562.74C1545.85 486.768 1485.09 449.143 1455.67 387.338C1455.67 387.338C1451.83 379.282 1451.17 375.767 1448.9 367.913C1446.95 361.139 1446.53 342.188 1444.38 338.77C1431.82 352 1417.48 364.409 1406.39 378.857C1353.14 448.261 1327.63 538.827 1409.9 597.728ZM1326.52 610.953C1333.89 608.315 1344.65 604.398 1352.26 602.669C1355.83 601.475 1360.11 600.173 1363.54 598.754C1359.31 593.254 1340.49 577.134 1333.09 569.108C1323.99 559.237 1297.61 521.023 1292 516.651C1287.95 542.792 1294.47 569.47 1310.13 590.791C1315.21 597.687 1321.42 604.102 1326.52 610.953Z"/><path fill="#755B4D" transform="matrix(0.935304 0 0 0.935304 -740.761 -245.049)" d="M1850.12 1113.45C1868.95 1112.52 1879.66 1118.25 1893.91 1129.82L1894.87 1129.56L1894.97 1126.68C1895.12 1121.42 1895.35 1118.54 1899.58 1115.01C1904.02 1113.78 1910.56 1115.81 1910.81 1119.63C1912.14 1139.73 1916.31 1206.85 1910.31 1223.25C1900.76 1232.7 1895.46 1225.04 1891.99 1215.37C1889.03 1215.7 1887.07 1217.95 1884.73 1219.95C1878.29 1223.78 1870.42 1226.8 1863.02 1228.01C1850.09 1230.11 1836.85 1226.97 1826.24 1219.29C1787.13 1190.61 1796.29 1122.18 1850.12 1113.45ZM1862.78 1211.72C1869.95 1210.01 1874.61 1209.1 1880.55 1204.34C1893.08 1194.3 1898.43 1176.37 1894.69 1160.73C1892.33 1150.46 1885.92 1141.59 1876.91 1136.12C1869.57 1131.69 1863.71 1130.59 1855.37 1130.23C1805.74 1137.57 1811.31 1215.12 1862.78 1211.72Z"/><path fill="#755B4D" transform="matrix(0.935304 0 0 0.935304 -740.761 -245.049)" d="M1164.13 1218.88C1162.5 1221.87 1161.87 1222.5 1159.05 1224.52C1149.41 1231.41 1144.86 1221.3 1141.59 1213.87C1136.42 1217.54 1131.96 1220.88 1126.28 1223.66C1101.34 1235.88 1072.01 1222.58 1060.98 1197.94C1054.18 1182.49 1052.05 1163.95 1057.96 1147.86C1068.92 1118.02 1101.77 1103.8 1130.22 1119.23C1135.17 1121.91 1139.29 1126.03 1144.58 1128.08L1145.52 1127C1144.68 1121.13 1143.97 1119.78 1148.38 1115.61C1154.03 1113.69 1158.46 1115.73 1163.68 1117.87C1165.04 1126.08 1164.41 1151.03 1164.28 1160.97C1164.07 1176.96 1166.08 1203.91 1164.13 1218.88ZM1116.9 1210.24C1142.32 1201.36 1151.3 1178.01 1142.29 1153.12C1139.02 1144.13 1132.24 1136.86 1123.5 1132.97C1115.36 1129.3 1109.91 1129.35 1101.31 1130.25C1057.34 1146.84 1065.66 1218.62 1116.9 1210.24Z"/><path fill="#755B4D" transform="matrix(0.935304 0 0 0.935304 -740.761 -245.049)" d="M1425.7 1114.42C1439.31 1112.91 1448.42 1113.39 1460.88 1119.92C1463.72 1121.41 1469.01 1124.68 1471.75 1125.32C1475.4 1115.07 1478.36 1113.14 1489.68 1116.22C1490.97 1117.78 1491.1 1119.15 1491.47 1121.11C1493.25 1130.61 1494.11 1217.23 1491 1221.64C1488.96 1224.54 1486.89 1225.9 1483.42 1226.48C1477.39 1225.41 1475.16 1221.63 1471.62 1216.87C1468.98 1216.87 1466.43 1218.65 1464.01 1220.13C1433.17 1237.43 1396.92 1225.38 1387.16 1191.56C1376.65 1155.14 1389.43 1125.3 1425.7 1114.42ZM1441.46 1211.56C1449.18 1210.28 1454.04 1209.52 1460.45 1204.61C1480.52 1189.26 1480.66 1150.96 1459.09 1136.67C1451.03 1131.34 1445.48 1129.63 1435.92 1129.36C1425.52 1131.02 1415.3 1134.44 1409.51 1143.69C1391.71 1172.14 1404.8 1211.78 1441.46 1211.56Z"/><path fill="#755B4D" transform="matrix(0.935304 0 0 0.935304 -740.761 -245.049)" d="M1713.38 1074.13C1715.03 1073.97 1716.6 1074.06 1718.25 1074.24C1720.3 1074.45 1724.08 1075.13 1725.26 1077.12C1726.67 1079.48 1727.9 1213.93 1725.68 1220.86C1725.03 1222.89 1723.45 1224.05 1721.56 1224.88C1718.82 1226.08 1715.17 1226.3 1712.39 1225.06C1700.52 1219.77 1709.72 1131.48 1705.15 1115.54C1697.9 1117.47 1672.13 1170.27 1660.92 1179.5C1658.69 1181.34 1656.01 1182.93 1653.02 1182.43C1643.38 1180.82 1615.23 1131.49 1607.47 1120.99C1606.18 1119.23 1605 1117 1602.79 1116.69C1601.64 1120.77 1602.15 1128.69 1602.24 1133.28C1602.16 1145.94 1603.41 1213.57 1600.92 1221.52C1596.62 1226.26 1590.97 1226.71 1585.22 1224.36C1582.17 1220.96 1582.67 1218.71 1582.5 1214.13C1580.9 1170.14 1581.76 1126.2 1582.74 1082.22C1582.9 1074.88 1594.46 1072.4 1599.48 1077.31C1605.8 1082.73 1609.3 1090.62 1614.2 1096.96C1627.33 1113.96 1641.06 1142.1 1655.62 1156.93L1656.33 1157.65C1666.94 1141.71 1701.78 1082.15 1713.38 1074.13Z"/><path fill="#755B4D" transform="matrix(0.935304 0 0 0.935304 -740.761 -245.049)" d="M1242.75 1113.31C1262.75 1112.18 1269.87 1117.43 1282.19 1132.79C1294.69 1121.35 1300.8 1114.28 1318.79 1113.92C1371.5 1113.08 1359.85 1175.24 1361.43 1209.9C1362.16 1225.94 1352.54 1231.55 1341.89 1220.38C1339.78 1218.16 1341.39 1191.98 1341.11 1185.5C1340.26 1165.76 1347.61 1132.86 1317.17 1131.76C1280.18 1131.61 1286.11 1170 1286.33 1194.5C1286.46 1200.78 1287.48 1216.24 1284.37 1220.76C1276.55 1232.03 1268.41 1223.51 1267.66 1212.77C1266.16 1191.24 1269.25 1167.77 1266.9 1146.41L1266.74 1145.01C1263.58 1140.12 1257.01 1132.64 1251.65 1131.89C1194.51 1123.87 1218.89 1187.58 1211.59 1219.57C1210.72 1223.38 1209.08 1224.7 1206.49 1226.05C1203.26 1226.47 1201.89 1226.19 1198.88 1224.88C1197.08 1224.09 1194.98 1223.04 1194.6 1221.05C1191.78 1206.25 1192.23 1126.8 1196.7 1117.21C1208.86 1109.5 1209.71 1119.32 1215.78 1125.97C1226.5 1119.58 1230.55 1116.3 1242.75 1113.31Z"/><path fill="#755B4D" transform="matrix(0.935304 0 0 0.935304 -740.761 -245.049)" d="M886.102 1079.89C888.038 1078.21 890.818 1075.31 893.279 1074.56C898.827 1072.87 961.266 1072.93 970.523 1073.5C974.17 1073.73 977.629 1073.84 980.139 1076.9C981.935 1079.09 982.604 1082.26 981.974 1085.02C981.382 1087.61 980.053 1089.24 977.725 1090.46C971.677 1093.65 916.315 1091.6 904.36 1091.56L904.296 1140.9C917.214 1140.2 968.848 1135.63 974.365 1147.49C974.388 1150.31 972.465 1155.55 970.027 1156C950.447 1159.65 923.968 1156.82 904.494 1157.46C904.649 1168.69 907.706 1217.61 901.993 1223.89C900.083 1225.99 897.87 1226.7 895.078 1226.61C892.454 1226.53 890.274 1225.58 887.89 1224.6C886.963 1224.22 886.034 1223.85 885.11 1223.46C883.637 1178.82 885.222 1124.93 886.102 1079.89Z"/><path fill="#755B4D" transform="matrix(0.935304 0 0 0.935304 -740.761 -245.049)" d="M1014.95 1066.12C1019.63 1065.97 1022.7 1066.03 1026.44 1068.83C1030.12 1073.79 1028.85 1133.77 1028.7 1144.66C1028.38 1168.99 1029.21 1196.86 1027.51 1220.91C1026.19 1223.72 1024.64 1224 1021.63 1225.44C1019.54 1225.6 1017.45 1225.59 1015.36 1225.41C1011.83 1225.08 1010.71 1224.3 1008.74 1221.91C1007.74 1210.64 1008.1 1195.95 1008.07 1184.45L1008.03 1121.88C1008.03 1106.75 1007.68 1087.1 1008.61 1071.63C1008.74 1069.37 1012.78 1067.47 1014.95 1066.12Z"/><path fill="#755B4D" transform="matrix(0.935304 0 0 0.935304 -740.761 -245.049)" d="M1766.05 1114.81C1766.61 1114.79 1767.18 1114.79 1767.74 1114.8C1771.97 1114.88 1774.2 1115.41 1777.06 1118.3C1780.38 1125.94 1779.65 1204.69 1778.84 1217.9C1778.57 1222.31 1776.37 1223.13 1773.21 1225.62C1767.06 1226.29 1762.85 1226.22 1759.23 1220.92C1757.02 1195.82 1758.96 1148.68 1759.41 1121.9C1759.46 1118.98 1763.6 1116.29 1766.05 1114.81Z"/><path fill="#755B4D" transform="matrix(0.935304 0 0 0.935304 -740.761 -245.049)" d="M1357.27 677.389C1367.16 675.291 1417.85 681.796 1412.68 693.551C1406.8 697.572 1401.09 697.158 1393.99 697.56C1391.99 700.424 1389.97 703.751 1388.07 706.721C1370.74 711.302 1365.45 714.391 1354.05 698.469C1347.34 698.86 1338.48 700.716 1334.48 694.148C1334.19 685.52 1350.96 679.717 1357.27 677.389Z"/><path fill="#FAF8F4" fill-opacity="0.011764706" transform="matrix(0.935304 0 0 0.935304 -740.761 -245.049)" d="M885.11 1223.46C883.509 1222.74 882.828 1222.82 881.981 1221.17C880.494 1218.27 880.121 1086.71 882.225 1081.97C882.861 1080.54 884.668 1080.39 886.102 1079.89C885.222 1124.93 883.637 1178.82 885.11 1223.46Z"/><path fill="#755B4D" transform="matrix(0.935304 0 0 0.935304 -740.761 -245.049)" d="M1763.66 1077.11C1770 1076.81 1774.83 1076.14 1778.37 1082.58C1782.22 1089.58 1778.51 1095.65 1772.18 1099.1C1754.65 1100.08 1751.96 1085.2 1763.66 1077.11Z"/><path fill="#FAF8F4" fill-opacity="0.011764706" transform="matrix(0.935304 0 0 0.935304 -740.761 -245.049)" d="M1163.68 1117.87C1166.32 1119.38 1166.65 1119.35 1167.45 1122.43C1169.49 1130.33 1169.97 1211.3 1167.05 1216.19C1166.36 1217.35 1165.2 1218.12 1164.13 1218.88C1166.08 1203.91 1164.07 1176.96 1164.28 1160.97C1164.41 1151.03 1165.04 1126.08 1163.68 1117.87Z"/><path fill="#E5DAD5" fill-opacity="0.13725491" transform="matrix(0.935304 0 0 0.935304 -740.761 -245.049)" d="M1713.61 459.395C1715.68 458.718 1714.88 458.935 1717.31 459.382L1717.81 460.833C1713.42 465.879 1696.39 469.086 1689.24 470.846C1687.15 471.33 1687.23 471.137 1685.01 470.972L1684.61 470.154L1687.23 467.992C1687.26 467.366 1687.29 464.478 1687.89 464.312C1695.99 462.055 1705.1 461.534 1713.61 459.395Z"/><path fill="#E5DAD5" fill-opacity="0.070588239" transform="matrix(0.935304 0 0 0.935304 -740.761 -245.049)" d="M1198.65 442.491C1205.06 441.158 1211.63 440.717 1215.74 446.252C1208.69 447.773 1204.7 445.649 1198.65 442.491Z"/></g></svg>